<svg xmlns="http://www.w3.org/2000/svg" width="45" height="47" viewBox="0 0 45 47"><g><g><g><path fill="#fff" d="M41.038 32.19h-8.287a.484.484 0 0 0 0 .97h8.287a.484.484 0 0 0 0-.97z"/><path fill="none" d="M41.038 32.19h-8.287a.484.484 0 0 0 0 .97h8.287a.484.484 0 0 0 0-.97z"/></g><g><path fill="#fff" d="M41.033 38.34H31.74a.484.484 0 0 0 0 .97h9.292a.484.484 0 0 0 0-.97z"/><path fill="none" d="M41.033 38.34H31.74a.484.484 0 0 0 0 .97h9.292a.484.484 0 0 0 0-.97z"/></g><g><path fill="#fff" d="M3.481 35.69h7.493a.484.484 0 0 0 0-.97H3.481a.484.484 0 0 0-.481.485c0 .27.216.486.481.486z"/><path fill="none" d="M3.481 35.69h7.493a.484.484 0 0 0 0-.97H3.481a.484.484 0 0 0-.481.485c0 .27.216.486.481.486z"/></g><g><path fill="#fff" d="M6.748.53a.478.478 0 0 1 .555.093.49.49 0 0 1 .089.562 4.263 4.263 0 0 0-.45 1.91c0 2.378 1.93 4.313 4.3 4.313.664 0 1.305-.153 1.907-.453a.478.478 0 0 1 .555.093.488.488 0 0 1 .09.56 5.231 5.231 0 0 1-4.711 2.94c-2.903 0-5.263-2.372-5.263-5.286A5.258 5.258 0 0 1 6.748.53zm5.383 7.773a5.155 5.155 0 0 1-.89.076c-2.901 0-5.262-2.37-5.26-5.284 0-.303.024-.6.075-.895a4.286 4.286 0 0 0-1.273 3.062c0 2.38 1.93 4.315 4.3 4.315a4.256 4.256 0 0 0 3.048-1.274z"/><path fill="none" d="M6.748.53a.478.478 0 0 1 .555.093.49.49 0 0 1 .089.562 4.263 4.263 0 0 0-.45 1.91c0 2.378 1.93 4.313 4.3 4.313.664 0 1.305-.153 1.907-.453a.478.478 0 0 1 .555.093.488.488 0 0 1 .09.56 5.231 5.231 0 0 1-4.711 2.94c-2.903 0-5.263-2.372-5.263-5.286A5.258 5.258 0 0 1 6.748.53zm5.383 7.773a5.155 5.155 0 0 1-.89.076c-2.901 0-5.262-2.37-5.26-5.284 0-.303.024-.6.075-.895a4.286 4.286 0 0 0-1.273 3.062c0 2.38 1.93 4.315 4.3 4.315a4.256 4.256 0 0 0 3.048-1.274z"/></g><g><path fill="#fff" d="M41.042 24.407a.482.482 0 0 1 .48.487l-.019 4.16c0 .212-.139.4-.34.462a.477.477 0 0 1-.538-.191l-2.81-4.177v3.905a.484.484 0 0 1-.481.486H26.289a4.366 4.366 0 0 1-4.053 3.088c-.01 0-.019.001-.028.003l-.01.001a.134.134 0 0 1-.028 0H22.142l-.019.002a4.368 4.368 0 0 1-4.167-3.094H7.232a.484.484 0 0 1-.482-.486v-3.905l-2.81 4.176a.485.485 0 0 1-.541.192.486.486 0 0 1-.339-.466l.017-4.342a.484.484 0 0 1 .481-.483h.002c.266 0 .482.22.48.487l-.011 2.75L21.883.92c.18-.267.619-.267.797 0l17.868 26.562.01-2.592a.484.484 0 0 1 .482-.483zm-18.806 7.25a1.532 1.532 0 0 0 1.475-1.528c0-.552-.805-1.822-1.531-2.78-.726.958-1.531 2.228-1.531 2.78 0 .838.677 1.52 1.512 1.531l.07-.003zm2.436-1.53c0 .144-.02.28-.042.417.551-.607.89-1.409.886-2.29 0-1.454-2.19-4.548-3.396-6.088-1.206 1.54-3.397 4.636-3.397 6.088 0 .955.397 1.82 1.03 2.44a2.573 2.573 0 0 1-.07-.567c0-1.229 1.77-3.437 2.124-3.868a.496.496 0 0 1 .741 0c.356.43 2.124 2.64 2.124 3.868zm-2.178-9.041c.408.495 3.989 4.908 3.987 7.168 0 .106-.007.21-.015.315h5.204v-3.2c-.628-.512-2.71-2.287-4.818-4.92-1.712-2.137-3.666-5.155-4.552-8.6-.886 3.443-2.84 6.463-4.551 8.6-2.109 2.633-4.19 4.408-4.819 4.92v3.2h4.849l-.006-.089a3.52 3.52 0 0 1-.01-.226c0-2.26 3.582-6.673 3.99-7.168a.496.496 0 0 1 .74 0zm10.137 7.483h4.22l.003-4.852-14.57-21.659-14.571 21.66v4.85h4.252v-3.435c0-.151.07-.293.188-.384.117-.092 9.664-7.635 9.664-16.562 0-.267.216-.485.481-.485s.482.218.482.485c0 8.924 9.54 16.464 9.663 16.561a.49.49 0 0 1 .188.385z"/><path fill="none" d="M41.042 24.407a.482.482 0 0 1 .48.487l-.019 4.16c0 .212-.139.4-.34.462a.477.477 0 0 1-.538-.191l-2.81-4.177v3.905a.484.484 0 0 1-.481.486H26.289a4.366 4.366 0 0 1-4.053 3.088c-.01 0-.019.001-.028.003l-.01.001a.134.134 0 0 1-.028 0H22.142l-.019.002a4.368 4.368 0 0 1-4.167-3.094H7.232a.484.484 0 0 1-.482-.486v-3.905l-2.81 4.176a.485.485 0 0 1-.541.192.486.486 0 0 1-.339-.466l.017-4.342a.484.484 0 0 1 .481-.483h.002c.266 0 .482.22.48.487l-.011 2.75L21.883.92c.18-.267.619-.267.797 0l17.868 26.562.01-2.592a.484.484 0 0 1 .482-.483zm-18.806 7.25a1.532 1.532 0 0 0 1.475-1.528c0-.552-.805-1.822-1.531-2.78-.726.958-1.531 2.228-1.531 2.78 0 .838.677 1.52 1.512 1.531l.07-.003zm2.436-1.53c0 .144-.02.28-.042.417.551-.607.89-1.409.886-2.29 0-1.454-2.19-4.548-3.396-6.088-1.206 1.54-3.397 4.636-3.397 6.088 0 .955.397 1.82 1.03 2.44a2.573 2.573 0 0 1-.07-.567c0-1.229 1.77-3.437 2.124-3.868a.496.496 0 0 1 .741 0c.356.43 2.124 2.64 2.124 3.868zm-2.178-9.041c.408.495 3.989 4.908 3.987 7.168 0 .106-.007.21-.015.315h5.204v-3.2c-.628-.512-2.71-2.287-4.818-4.92-1.712-2.137-3.666-5.155-4.552-8.6-.886 3.443-2.84 6.463-4.551 8.6-2.109 2.633-4.19 4.408-4.819 4.92v3.2h4.849l-.006-.089a3.52 3.52 0 0 1-.01-.226c0-2.26 3.582-6.673 3.99-7.168a.496.496 0 0 1 .74 0zm10.137 7.483h4.22l.003-4.852-14.57-21.659-14.571 21.66v4.85h4.252v-3.435c0-.151.07-.293.188-.384.117-.092 9.664-7.635 9.664-16.562 0-.267.216-.485.481-.485s.482.218.482.485c0 8.924 9.54 16.464 9.663 16.561a.49.49 0 0 1 .188.385z"/></g><g><path fill="#fff" d="M29.6 34.437a.488.488 0 0 1-.304.622l-1.782.593 1.712.487a.485.485 0 0 1 .33.605l-.614 2.09a.48.48 0 0 1-.593.327l-6.128-1.746-5.623 1.875a.474.474 0 0 1-.602-.301l-.71-2.061a.486.486 0 0 1 .304-.62l1.485-.495-1.784-.508a.486.486 0 0 1-.331-.605l.615-2.089a.48.48 0 0 1 .592-.33l6.201 1.767 5.917-1.973a.48.48 0 0 1 .606.301zm-13.237-1.092l-.343 1.158 2.686.766 2.031-.677zm9.52 2.85l-2.031.676 4.3 1.227.342-1.159zm-9.53.88l.394 1.144L28.53 34.29l-.393-1.143z"/><path fill="none" d="M29.6 34.437a.488.488 0 0 1-.304.622l-1.782.593 1.712.487a.485.485 0 0 1 .33.605l-.614 2.09a.48.48 0 0 1-.593.327l-6.128-1.746-5.623 1.875a.474.474 0 0 1-.602-.301l-.71-2.061a.486.486 0 0 1 .304-.62l1.485-.495-1.784-.508a.486.486 0 0 1-.331-.605l.615-2.089a.48.48 0 0 1 .592-.33l6.201 1.767 5.917-1.973a.48.48 0 0 1 .606.301zm-13.237-1.092l-.343 1.158 2.686.766 2.031-.677zm9.52 2.85l-2.031.676 4.3 1.227.342-1.159zm-9.53.88l.394 1.144L28.53 34.29l-.393-1.143z"/></g></g></g></svg>