<svg xmlns="http://www.w3.org/2000/svg" width="40" height="25" viewBox="0 0 40 25"><g><g><g><path fill="#4af6cd" d="M26.361 4.752l.263-.236c.174-.155.344-.312.51-.469.161-.166.353-.276.52-.417.173-.135.34-.274.51-.399.35-.224.676-.472 1.006-.661.331-.185.639-.388.945-.526l.433-.224c.143-.063.28-.125.41-.181.52-.241.95-.388 1.246-.496l.457-.146.015-.005a.18.18 0 0 0 0-.342s-.18-.057-.509-.117c-.164-.026-.372-.066-.613-.081-.243-.02-.525-.05-.84-.04-.157.002-.325-.002-.5.008l-.547.05c-.385.027-.79.115-1.23.205-.224.036-.442.106-.67.176l-.706.22c-.462.194-.967.387-1.46.65a27.85 27.85 0 0 0-.742.428l-.381.228-.362.264c-.241.185-.487.37-.738.56-.26.183-.466.42-.704.638-.23.227-.465.454-.701.685-.211.251-.422.507-.63.772-.204.266-.427.528-.617.81-.18.288-.352.586-.53.883-.168.305-.356.595-.505.918-.147.329-.283.665-.42 1.002a36.06 36.06 0 0 0-.405 1.016l-.267.954-.27.96-.15.53-.119.437c-.041.146-.075.294-.121.438l-.158.424-.158.427c-.055.142-.125.275-.186.414a12.421 12.421 0 0 1-1.975 3.037 14.844 14.844 0 0 1-2.693 2.38c-.976.677-2.008 1.22-3.022 1.678a23.313 23.313 0 0 1-2.967 1.082 30.14 30.14 0 0 1-4.696.962c-1.158.145-1.823.155-1.823.155a.175.175 0 0 0-.17.151.174.174 0 0 0 .152.195h.003s.68.086 1.87.111c.595.013 1.32.007 2.152-.045a26.612 26.612 0 0 0 2.791-.306c2.032-.342 4.422-.962 6.776-2.242 1.173-.637 2.337-1.436 3.374-2.434 1.04-.989 1.963-2.159 2.694-3.444.092-.161.192-.317.276-.482l.245-.495c.164-.331.324-.665.457-1.006l.21-.51.05-.128.027-.063.007-.017-.017.052.012-.029.098-.23.396-.917.394-.909c.148-.252.284-.505.419-.756.134-.251.27-.499.392-.751.138-.248.302-.487.447-.73.145-.244.29-.486.424-.73.15-.233.314-.449.464-.673.156-.221.296-.45.447-.668l.485-.607c.08-.101.158-.201.238-.3.076-.104.154-.204.243-.288.17-.182.339-.36.505-.536l.24-.264z"/></g><g><path fill="#4af6cd" d="M38.827 23.447c.637.284 1.007.422 1.007.422.064.023.097.093.072.153a.125.125 0 0 1-.138.077s-.397-.077-1.08-.251a26.806 26.806 0 0 1-2.791-.893l-.275-.107c-.199-.077-.403-.156-.61-.242l-.433-.19-.502-.219-.37-.182-.603-.298-.74-.416-.252-.141-.318-.203-.683-.434a26.69 26.69 0 0 1-.703-.521l-.28-.212-.503-.44-.445-.391-.268-.281c-.206-.216-.414-.433-.617-.657l-.404-.516-.2-.26-.104-.13-.025-.031-.013-.017a2.125 2.125 0 0 1-.003-.005l-.03-.05-.005-.008-.042-.063-.326-.5a4.428 4.428 0 0 0-.1-.154c-.076-.111-.151-.223-.224-.382a16.27 16.27 0 0 0-.153-.306c-.16-.317-.324-.637-.41-.964l-.043-.13a7.39 7.39 0 0 1-.157-.514l-.045-.285-.063-.389a4.404 4.404 0 0 0-.016-.13 2.798 2.798 0 0 1-.022-.205l.003-.343.006-.193c.004-.162.008-.322.033-.482.028-.173.064-.342.1-.51l.03-.15c.026-.144.083-.283.138-.42.028-.07.056-.137.079-.205l.12-.299c.028-.064.066-.126.103-.187l.055-.092.099-.164c.075-.126.149-.25.235-.363l.032-.038c.256-.3.499-.586.797-.798.216-.196.468-.329.705-.454.068-.036.134-.07.198-.106a3.71 3.71 0 0 1 .34-.126 9.361 9.361 0 0 0 .163-.056c.132-.044.258-.087.393-.1a3.723 3.723 0 0 1 1.464-.006c.196.042.364.088.507.13.141.061.258.114.35.161.182.091.273.143.273.143.06.035.08.111.045.171a.122.122 0 0 1-.09.062l-.016.003-.291.043a4.377 4.377 0 0 1-.33.043 9.135 9.135 0 0 0-.132.039c-.092.027-.19.055-.291.08a1.32 1.32 0 0 0-.327.12 3.471 3.471 0 0 1-.157.069c-.115.036-.226.105-.338.176-.056.036-.112.071-.17.103-.117.07-.226.163-.335.256l-.16.133c-.05.059-.102.114-.154.168-.1.106-.201.21-.279.344-.276.36-.465.813-.572 1.303a1.513 1.513 0 0 1-.03.136c-.02.078-.039.155-.038.24l-.006.09a4.49 4.49 0 0 1-.029.306 1.63 1.63 0 0 0 .002.227c.004.063.007.126.005.188v.052c0 .053 0 .106-.002.16.002.049.01.1.018.15l.01.067a37.071 37.071 0 0 1 .044.447c.036.151.07.306.1.462.03.21.087.4.146.591.033.107.066.215.094.327.017.102.078.233.138.363.025.053.049.105.07.155l.246.544.03.068.003.005.004.007.068.116.14.23.28.465.379.495.291.38.758.819.813.756.281.234.562.466c.29.216.578.429.86.636.29.198.576.391.854.577l.832.519c.173.103.345.2.512.295l.286.164c.517.286 1.001.535 1.435.744.435.211.818.388 1.135.529zm-9.51-7.467l-.001-.001.008.015.003.003a.22.22 0 0 1-.01-.017z"/></g><g><path fill="#4af6cd" d="M31.491 2.855c-.78.162-1.274.366-1.274.366a.09.09 0 0 0-.057.082.086.086 0 0 0 .086.088c.002 0 .517.003 1.277.091.38.037.815.113 1.273.193.457.103.941.196 1.405.342.116.04.233.072.346.115l.33.146c.22.095.426.2.634.271.21.063.415.118.616.155l.584.093c.184.028.364.038.527.046.158.017.304.027.429.027.25.005.417-.013.417-.013l.007-.002.023-.005a.11.11 0 0 0 .065-.14s-.055-.15-.19-.374a3.52 3.52 0 0 0-.267-.385 3.626 3.626 0 0 0-.416-.416 3.773 3.773 0 0 0-.26-.213c-.096-.06-.192-.127-.298-.186a2.603 2.603 0 0 0-.69-.31 3.202 3.202 0 0 0-.797-.129c-.274-.024-.55-.036-.824-.05-.273-.024-.545-.021-.811-.026-.266-.007-.529.02-.78.033-.252.03-.492.043-.72.085-.226.038-.438.075-.634.116z"/></g><g><path fill="#4af6cd" d="M37.11 9.007c.167.075.296.158.426.218.238.133.404.213.404.213l.01.005c.013.006.028.01.045.01a.1.1 0 0 0 .096-.102l-.003-.128c-.005-.083-.01-.207-.043-.359-.037-.148-.082-.335-.173-.528a3.075 3.075 0 0 0-.358-.625 6 6 0 0 0-.257-.318c-.098-.098-.196-.208-.308-.304a3.58 3.58 0 0 0-.753-.525 4.275 4.275 0 0 0-.904-.326c-.314-.085-.632-.151-.944-.224a12.706 12.706 0 0 0-1.837-.293 15.37 15.37 0 0 0-1.599-.06c-.932.012-1.546.105-1.546.105a.09.09 0 0 0-.075.07.088.088 0 0 0 .07.103s.6.114 1.476.345c.437.113.941.261 1.47.436.264.085.532.188.804.284.27.1.54.21.803.328.263.12.517.256.751.405.238.148.46.3.682.422.223.122.437.228.651.321l.596.278c.189.09.364.174.516.25z"/></g><g><path fill="#4af6cd" d="M36.182 11.09a2.32 2.32 0 0 0-.253-.385 1.62 1.62 0 0 0-.364-.341c-.14-.1-.309-.16-.477-.224-.17-.057-.34-.112-.505-.173a7.09 7.09 0 0 0-.98-.275 7.547 7.547 0 0 0-.867-.128c-.505-.051-.848-.03-.848-.03a.076.076 0 0 0-.061.042.072.072 0 0 0 .035.096s.3.142.733.368c.214.118.458.26.714.414.125.08.255.161.384.242.132.08.256.173.383.26.121.093.237.194.344.299.1.111.208.208.31.29.102.084.225.139.335.195.108.058.226.1.334.143.103.045.21.082.312.112.103.03.185.064.266.086.16.048.276.068.276.068l.005.002a.096.096 0 0 0 .112-.077s.02-.11.008-.29a1.548 1.548 0 0 0-.05-.32 2.532 2.532 0 0 0-.146-.374z"/></g></g></g></svg>