<svg xmlns="http://www.w3.org/2000/svg" width="19" height="25" viewBox="0 0 19 25"><g><g><g><path fill="#4af6cd" d="M5.25 15.743a2.702 2.702 0 0 1-2.7-2.699.575.575 0 0 1 1.148 0c0 .856.698 1.553 1.553 1.553.856 0 1.553-.697 1.553-1.553a.575.575 0 0 1 1.148 0 2.708 2.708 0 0 1-2.703 2.7z"/><path fill="none" stroke="#4af6cd" stroke-miterlimit="50" stroke-width=".5" d="M5.25 15.743a2.702 2.702 0 0 1-2.7-2.699.575.575 0 0 1 1.148 0c0 .856.698 1.553 1.553 1.553.856 0 1.553-.697 1.553-1.553a.575.575 0 0 1 1.148 0 2.708 2.708 0 0 1-2.703 2.7z"/></g><g><path fill="#4af6cd" d="M9.5 15.743a2.702 2.702 0 0 1-2.7-2.699.575.575 0 0 1 1.148 0c0 .856.698 1.553 1.553 1.553.856 0 1.553-.697 1.553-1.553a.575.575 0 0 1 1.148 0 2.708 2.708 0 0 1-2.703 2.7z"/><path fill="none" stroke="#4af6cd" stroke-miterlimit="50" stroke-width=".5" d="M9.5 15.743a2.702 2.702 0 0 1-2.7-2.699.575.575 0 0 1 1.148 0c0 .856.698 1.553 1.553 1.553.856 0 1.553-.697 1.553-1.553a.575.575 0 0 1 1.148 0 2.708 2.708 0 0 1-2.703 2.7z"/></g><g><path fill="#4af6cd" d="M13.75 15.743a2.702 2.702 0 0 1-2.7-2.699.575.575 0 0 1 1.148 0c0 .856.698 1.553 1.553 1.553.856 0 1.553-.697 1.553-1.553a.575.575 0 0 1 1.148 0 2.708 2.708 0 0 1-2.703 2.7z"/><path fill="none" stroke="#4af6cd" stroke-miterlimit="50" stroke-width=".5" d="M13.75 15.743a2.702 2.702 0 0 1-2.7-2.699.575.575 0 0 1 1.148 0c0 .856.698 1.553 1.553 1.553.856 0 1.553-.697 1.553-1.553a.575.575 0 0 1 1.148 0 2.708 2.708 0 0 1-2.703 2.7z"/></g><g><path fill="#4af6cd" d="M9.139.468a.573.573 0 0 1 .74.015c.356.315 8.7 7.756 8.7 14.588-.003 5.006-4.075 9.078-9.08 9.078h-.001C4.492 24.15.42 20.077.42 15.071.42 7.595 8.781.755 9.139.468zm.343 1.213zm0 0C7.862 3.1 1.566 9.005 1.566 15.07c0 4.373 3.557 7.93 7.93 7.93 4.373 0 7.93-3.557 7.93-7.93.001-5.543-6.338-11.877-7.944-13.39z"/><path fill="none" stroke="#4af6cd" stroke-miterlimit="50" stroke-width=".5" d="M9.139.468a.573.573 0 0 1 .74.015c.356.315 8.7 7.756 8.7 14.588-.003 5.006-4.075 9.078-9.08 9.078h-.001C4.492 24.15.42 20.077.42 15.071.42 7.595 8.781.755 9.139.468zm.343 1.213s0 0 0 0h0s0 0 0 0zm0 0C7.862 3.1 1.566 9.005 1.566 15.07c0 4.373 3.557 7.93 7.93 7.93 4.373 0 7.93-3.557 7.93-7.93.001-5.543-6.338-11.877-7.944-13.39z"/></g></g></g></svg>