<svg xmlns="http://www.w3.org/2000/svg" width="26" height="24" viewBox="0 0 26 24"><g><g><g><path fill="#4af6cd" d="M17.334 8.706H0v2.167h17.334a5.423 5.423 0 0 0 5.416-5.417A5.423 5.423 0 0 0 17.334.04a5.423 5.423 0 0 0-5.417 5.416h2.167a3.254 3.254 0 0 1 3.25-3.25 3.254 3.254 0 0 1 3.25 3.25 3.254 3.254 0 0 1-3.25 3.25z"/></g><g><path fill="#4af6cd" d="M20.584 13.04H0v2.166h20.584a3.254 3.254 0 0 1 3.25 3.25 3.254 3.254 0 0 1-3.25 3.25 3.254 3.254 0 0 1-3.25-3.25h-2.167a5.423 5.423 0 0 0 5.417 5.417A5.423 5.423 0 0 0 26 18.456a5.423 5.423 0 0 0-5.416-5.416z"/></g></g></g></svg>